<?xml version="1.0" encoding="utf-8"?>
<svg width="151px" height="134px" viewBox="0 0 151 134" version="1.1" xmlns:xlink="http://www.w3.org/1999/xlink" xmlns="http://www.w3.org/2000/svg">
  <desc>Created with Lunacy</desc>
  <g id="1-copy-copy">
    <path d="M0 0L151 0L151 134L0 134L0 0Z" id="Rectangle" fill="#F9F8F8" stroke="none" />
    <g id="Add-Photo" fill="#222323" fill-opacity="0.6117647" transform="translate(44 83.99994)">
      <path d="M10.5889 6.979Q9.78223 8.01465 9.78223 9.7168L9.78223 9.8125Q9.78223 11.5078 10.5923 12.5605Q11.4023 13.6133 12.6875 13.6133Q14.041 13.6133 14.7998 12.6836L14.8613 13.4766L16.0234 13.4766L16.0234 2.97656L14.7588 2.97656L14.7588 6.83203Q14 5.94336 12.7012 5.94336Q11.3955 5.94336 10.5889 6.979ZM17.6777 9.7168Q17.6777 8.01465 18.4844 6.979Q19.291 5.94336 20.5967 5.94336Q21.8955 5.94336 22.6543 6.83203L22.6543 2.97656L23.9189 2.97656L23.9189 13.4766L22.7568 13.4766L22.6953 12.6836Q21.9365 13.6133 20.583 13.6133Q19.2979 13.6133 18.4878 12.5605Q17.6777 11.5078 17.6777 9.8125L17.6777 9.7168ZM39.4434 6.97559Q40.2842 5.94336 41.6309 5.94336Q43.9756 5.94336 43.9961 8.58887L43.9961 13.4766L42.7314 13.4766L42.7314 8.58203Q42.7246 7.78223 42.3657 7.39941Q42.0068 7.0166 41.248 7.0166Q40.6328 7.0166 40.168 7.34473Q39.7031 7.67285 39.4434 8.20605L39.4434 13.4766L38.1787 13.4766L38.1787 2.97656L39.4434 2.97656L39.4434 6.97559ZM2.48145 10.8721L6.65137 10.8721L7.60156 13.4766L8.94824 13.4766L5.14063 3.52344L3.99219 3.52344L0.191406 13.4766L1.54492 13.4766L2.48145 10.8721ZM30.8574 13.4766L30.8574 9.58008L33.2021 9.58008Q34.8906 9.58008 35.7964 8.79736Q36.7021 8.01465 36.7021 6.56543Q36.7021 5.19141 35.7759 4.35742Q34.8496 3.52344 33.2158 3.52344L29.5449 3.52344L29.5449 13.4766L30.8574 13.4766ZM55.5898 4.28906L55.5898 6.08008L56.9707 6.08008L56.9707 7.05762L55.5898 7.05762L55.5898 11.6503Q55.5898 12.0952 55.7744 12.3176Q55.959 12.54 56.4033 12.54Q56.6221 12.54 57.0049 12.458L57.0049 13.4774Q56.5059 13.6133 56.0342 13.6133Q55.1865 13.6133 54.7559 13.1006Q54.3252 12.5879 54.3252 11.6445L54.3252 7.05762L52.9785 7.05762L52.9785 6.08008L54.3252 6.08008L54.3252 4.28906L55.5898 4.28906ZM33.2158 8.50684L30.8574 8.50684L30.8574 4.59668L33.291 4.59668Q34.2686 4.61719 34.8291 5.15135Q35.3896 5.68552 35.3896 6.57568Q35.3896 7.51392 34.8291 8.01038Q34.2686 8.50684 33.2158 8.50684ZM6.26172 9.79883L2.87793 9.79883L4.56641 5.14355L6.26172 9.79883ZM45.9819 7.75488Q45.5547 8.62305 45.5547 9.70996L45.5547 9.79883Q45.5547 11.5215 46.4878 12.5674Q47.4209 13.6133 48.9248 13.6133Q49.9229 13.6133 50.6919 13.1348Q51.4609 12.6563 51.8745 11.7983Q52.2881 10.9404 52.2881 9.86035L52.2881 9.77148Q52.2881 8.03516 51.355 6.98926Q50.4219 5.94336 48.9111 5.94336Q47.9336 5.94336 47.1714 6.41504Q46.4092 6.88672 45.9819 7.75488ZM58.5396 7.75488Q58.1123 8.62305 58.1123 9.70996L58.1123 9.79883Q58.1123 11.5215 59.0454 12.5674Q59.9785 13.6133 61.4824 13.6133Q62.4805 13.6133 63.2495 13.1348Q64.0186 12.6563 64.4321 11.7983Q64.8457 10.9404 64.8457 9.86035L64.8457 9.77148Q64.8457 8.03516 63.9126 6.98926Q62.9795 5.94336 61.4688 5.94336Q60.4912 5.94336 59.729 6.41504Q58.9668 6.88672 58.5396 7.75488ZM47.397 11.8359Q46.8262 11.0908 46.8262 9.86035Q46.8262 8.47266 47.4004 7.72754Q47.9746 6.98242 48.9111 6.98242Q49.8682 6.98242 50.4458 7.73779Q51.0234 8.49316 51.0234 9.70996Q51.0234 11.0703 50.4561 11.8257Q49.8887 12.5811 48.9248 12.5811Q47.9678 12.5811 47.397 11.8359ZM59.9546 11.8359Q59.3838 11.0908 59.3838 9.86035Q59.3838 8.47266 59.958 7.72754Q60.5322 6.98242 61.4688 6.98242Q62.4258 6.98242 63.0034 7.73779Q63.5811 8.49316 63.5811 9.70996Q63.5811 11.0703 63.0137 11.8257Q62.4463 12.5811 61.4824 12.5811Q60.5254 12.5811 59.9546 11.8359ZM11.5664 11.8291Q11.0469 11.1182 11.0469 9.86035Q11.0469 8.45215 11.5664 7.73438Q12.0859 7.0166 13.0156 7.0166Q14.1914 7.0166 14.7588 8.0625L14.7588 11.46Q14.2051 12.54 13.002 12.54Q12.0859 12.54 11.5664 11.8291ZM18.9424 9.86035Q18.9424 11.1182 19.4619 11.8291Q19.9814 12.54 20.8975 12.54Q22.1006 12.54 22.6543 11.46L22.6543 8.0625Q22.0869 7.0166 20.9111 7.0166Q19.9814 7.0166 19.4619 7.73438Q18.9424 8.45215 18.9424 9.86035Z" />
    </g>
    <g id="photo-camera" transform="translate(51 20.99997)" opacity="0.15">
      <g id="Group" transform="translate(0 4.438446)">
        <g id="Group">
          <path d="M51.0821 11.6835C50.8695 11.5666 45.8942 8.98321 37.602 7.42045L37.2831 6.05968C36.4538 2.49829 33.3177 0 29.65 0L22.1976 0C18.5405 0 15.4044 2.48766 14.5645 6.05968L14.2456 7.42045C5.95338 8.97258 0.978055 11.5666 0.765435 11.6835C0.297669 11.928 0 12.417 0 12.9486L0 29.8519C0 36.6239 5.50688 42.1414 12.2895 42.1414C13.0868 42.1414 13.7247 41.5035 13.7247 40.7062C13.7247 39.9089 13.0868 39.271 12.2895 39.271C7.10153 39.271 2.87038 35.0505 2.87038 29.8519L2.87038 13.8522C4.59261 13.0655 9.14269 11.2051 15.6808 10.0782C16.2442 9.98253 16.7014 9.54666 16.8289 8.99385L17.3605 6.70818C17.892 4.4544 19.8694 2.87038 22.1976 2.87038L29.65 2.87038C31.9675 2.87038 33.9555 4.44377 34.4871 6.70818L35.0186 8.99385C35.1462 9.55729 35.6033 9.98253 36.1668 10.0782C42.6836 11.2051 47.2443 13.0655 48.9772 13.8522L48.9772 29.8519C48.9772 35.0399 44.7567 39.271 39.5581 39.271C38.7608 39.271 38.1229 39.9089 38.1229 40.7062C38.1229 41.5035 38.7608 42.1414 39.5581 42.1414C46.3301 42.1414 51.8476 36.6345 51.8476 29.8519L51.8476 12.9486C51.8476 12.417 51.5605 11.928 51.0821 11.6835L51.0821 11.6835Z" id="Shape" fill="#767575" stroke="none" />
          <path d="M1.44269 4.22737C1.59152 4.22737 1.74036 4.20611 1.88919 4.15295C3.3988 3.65329 4.98282 3.20679 6.59874 2.82408C7.37481 2.64335 7.84257 1.86728 7.66185 1.10185C7.48112 0.325787 6.70505 -0.141978 5.93962 0.0387494C4.24928 0.442728 2.58021 0.910492 0.985551 1.43141C0.230748 1.67593 -0.173232 2.49451 0.0712817 3.23869C0.283902 3.84465 0.847348 4.22737 1.44269 4.22737L1.44269 4.22737Z" transform="translate(3.256226 4.521973)" id="Shape" fill="#767575" stroke="none" />
          <path d="M16.5206 0C7.40983 0 0 7.40982 0 16.5206C0 25.6314 7.40983 33.0519 16.5206 33.0519C25.6314 33.0519 33.0413 25.642 33.0413 16.5312C33.0413 7.42046 25.6314 0 16.5206 0L16.5206 0ZM16.5206 30.1815C8.99384 30.1815 2.87036 24.058 2.87036 16.5312C2.87036 9.00446 8.99384 2.87036 16.5206 2.87036C24.0474 2.87036 30.1709 8.99383 30.1709 16.5206C30.1709 24.0474 24.0474 30.1815 16.5206 30.1815L16.5206 30.1815Z" transform="translate(9.408447 9.918732)" id="Shape" fill="#767575" stroke="none" />
        </g>
      </g>
      <g id="Group" />
      <g id="Group" />
      <g id="Group" />
      <g id="Group" />
      <g id="Group" />
      <g id="Group" />
      <g id="Group" />
      <g id="Group" />
      <g id="Group" />
      <g id="Group" />
      <g id="Group" />
      <g id="Group" />
      <g id="Group" />
      <g id="Group" />
      <g id="Group" />
    </g>
  </g>
</svg>